<svg width="40" height="40" viewBox="0 0 40 40" fill="none" xmlns="http://www.w3.org/2000/svg">
<path d="M9.99998 32.9167C10.6903 32.9167 11.25 32.357 11.25 31.6667C11.25 30.9763 10.6903 30.4167 9.99998 30.4167V32.9167ZM11.6666 16.6667V17.9167C12.357 17.9167 12.9166 17.357 12.9166 16.6667H11.6666ZM28.3333 16.6667H27.0833C27.0833 17.357 27.643 17.9167 28.3333 17.9167V16.6667ZM30 30.4167C29.3096 30.4167 28.75 30.9763 28.75 31.6667C28.75 32.357 29.3096 32.9167 30 32.9167V30.4167ZM10.8333 17.9167H11.6666V15.4167H10.8333V17.9167ZM12.9166 16.6667V15H10.4166V16.6667H12.9166ZM27.0833 15V16.6667H29.5833V15H27.0833ZM28.3333 17.9167H29.1666V15.4167H28.3333V17.9167ZM35.4166 24.1667C35.4166 25.992 34.8604 27.5663 33.9325 28.6624C33.0215 29.7386 31.704 30.4167 30 30.4167V32.9167C32.4381 32.9167 34.4539 31.9158 35.8407 30.2776C37.2107 28.6592 37.9166 26.4835 37.9166 24.1667H35.4166ZM20 7.91669C23.912 7.91669 27.0833 11.088 27.0833 15H29.5833C29.5833 9.70729 25.2927 5.41669 20 5.41669V7.91669ZM12.9166 15C12.9166 11.088 16.088 7.91669 20 7.91669V5.41669C14.7073 5.41669 10.4166 9.70729 10.4166 15H12.9166ZM29.1666 17.9167C32.6184 17.9167 35.4166 20.7149 35.4166 24.1667H37.9166C37.9166 19.3342 33.9991 15.4167 29.1666 15.4167V17.9167ZM4.58331 24.1667C4.58331 20.7149 7.38153 17.9167 10.8333 17.9167V15.4167C6.00082 15.4167 2.08331 19.3342 2.08331 24.1667H4.58331ZM9.99998 30.4167C8.29595 30.4167 6.97845 29.7386 6.06741 28.6624C5.1396 27.5663 4.58331 25.992 4.58331 24.1667H2.08331C2.08331 26.4835 2.7893 28.6592 4.15928 30.2776C5.54604 31.9158 7.56188 32.9167 9.99998 32.9167V30.4167Z" fill="#6A4BFF"/>
<path d="M14.9999 32.5001V25.8334C14.9999 25.3732 15.373 25.0001 15.8333 25.0001H24.1666C24.6268 25.0001 24.9999 25.3732 24.9999 25.8334V32.5001C24.9999 32.9603 24.6268 33.3334 24.1666 33.3334H15.8333C15.373 33.3334 14.9999 32.9603 14.9999 32.5001Z" stroke="#6A4BFF" stroke-width="2.5" stroke-linecap="round" stroke-linejoin="round"/>
<path d="M16.6666 25.0001V23.3334C16.6666 21.4924 18.159 20.0001 20 20.0001V20.0001C21.8409 20.0001 23.3333 21.4924 23.3333 23.3334V25.0001" stroke="#6A4BFF" stroke-width="2.5" stroke-linecap="round" stroke-linejoin="round"/>
</svg>
