<svg width="40" height="40" viewBox="0 0 40 40" fill="none" xmlns="http://www.w3.org/2000/svg">
<path d="M11.6668 16.6667V17.9167C12.3571 17.9167 12.9168 17.357 12.9168 16.6667H11.6668ZM28.3334 16.6667H27.0834C27.0834 17.357 27.6431 17.9167 28.3334 17.9167V16.6667ZM10.8334 17.9167H11.6668V15.4167H10.8334V17.9167ZM12.9168 16.6667V15H10.4168V16.6667H12.9168ZM27.0834 15V16.6667H29.5834V15H27.0834ZM28.3334 17.9167H29.1668V15.4167H28.3334V17.9167ZM35.4168 24.1667C35.4168 25.992 34.8605 27.5663 33.9326 28.6624C33.0216 29.7386 31.7041 30.4167 30.0001 30.4167V32.9167C32.4382 32.9167 34.454 31.9158 35.8408 30.2776C37.2108 28.6592 37.9168 26.4835 37.9168 24.1667H35.4168ZM20.0001 7.91669C23.9121 7.91669 27.0834 11.088 27.0834 15H29.5834C29.5834 9.70729 25.2928 5.41669 20.0001 5.41669V7.91669ZM12.9168 15C12.9168 11.088 16.0881 7.91669 20.0001 7.91669V5.41669C14.7074 5.41669 10.4168 9.70729 10.4168 15H12.9168ZM29.1668 17.9167C32.6185 17.9167 35.4168 20.7149 35.4168 24.1667H37.9168C37.9168 19.3342 33.9992 15.4167 29.1668 15.4167V17.9167ZM4.58342 24.1667C4.58342 20.7149 7.38164 17.9167 10.8334 17.9167V15.4167C6.00093 15.4167 2.08342 19.3342 2.08342 24.1667H4.58342ZM10.0001 30.4167C8.29605 30.4167 6.97855 29.7386 6.06752 28.6624C5.1397 27.5663 4.58342 25.992 4.58342 24.1667H2.08342C2.08342 26.4835 2.7894 28.6592 4.15938 30.2776C5.54615 31.9158 7.56198 32.9167 10.0001 32.9167V30.4167ZM10.0001 32.9167H30.0001V30.4167H10.0001V32.9167Z" fill="#6A4BFF"/>
</svg>
